<mxfile host="app.diagrams.net" agent="Mozilla/5.0 (Windows NT 10.0; Win64; x64) AppleWebKit/537.36 (KHTML, like Gecko) Chrome/129.0.0.0 Safari/537.36" version="24.7.15" pages="5">
  <diagram name="Usuarios" id="9VGn8QmjjN7HwazxG1fa">
    <mxGraphModel dx="880" dy="468" grid="1" gridSize="10" guides="1" tooltips="1" connect="1" arrows="1" fold="1" page="1" pageScale="1" pageWidth="827" pageHeight="1169" math="0" shadow="0">
      <root>
        <mxCell id="0" />
        <mxCell id="1" parent="0" />
      </root>
    </mxGraphModel>
  </diagram>
  <diagram id="8hmT5VbffJ4biKWbyYKN" name="Mensajes">
    <mxGraphModel dx="880" dy="468" grid="1" gridSize="10" guides="1" tooltips="1" connect="1" arrows="1" fold="1" page="1" pageScale="1" pageWidth="827" pageHeight="1169" math="0" shadow="0">
      <root>
        <mxCell id="0" />
        <mxCell id="1" parent="0" />
      </root>
    </mxGraphModel>
  </diagram>
  <diagram id="1u_1-rdeqzPocPKB7jYK" name="Encriptar y desencriptar ">
    <mxGraphModel dx="880" dy="468" grid="1" gridSize="10" guides="1" tooltips="1" connect="1" arrows="1" fold="1" page="1" pageScale="1" pageWidth="827" pageHeight="1169" math="0" shadow="0">
      <root>
        <mxCell id="0" />
        <mxCell id="1" parent="0" />
      </root>
    </mxGraphModel>
  </diagram>
  <diagram id="y4m7FSPn03yHxid_f44B" name="GestiÃ³n de Claves ">
    <mxGraphModel dx="880" dy="468" grid="1" gridSize="10" guides="1" tooltips="1" connect="1" arrows="1" fold="1" page="1" pageScale="1" pageWidth="827" pageHeight="1169" math="0" shadow="0">
      <root>
        <mxCell id="0" />
        <mxCell id="1" parent="0" />
        <mxCell id="06AGU7f5jaIpLNaev6gf-3" style="edgeStyle=orthogonalEdgeStyle;rounded=0;orthogonalLoop=1;jettySize=auto;html=1;" edge="1" parent="1" source="06AGU7f5jaIpLNaev6gf-1" target="06AGU7f5jaIpLNaev6gf-2">
          <mxGeometry relative="1" as="geometry" />
        </mxCell>
        <mxCell id="06AGU7f5jaIpLNaev6gf-1" value="Gestionar clave" style="rounded=1;whiteSpace=wrap;html=1;" vertex="1" parent="1">
          <mxGeometry x="200" y="120" width="120" height="60" as="geometry" />
        </mxCell>
        <mxCell id="06AGU7f5jaIpLNaev6gf-5" style="edgeStyle=orthogonalEdgeStyle;rounded=0;orthogonalLoop=1;jettySize=auto;html=1;" edge="1" parent="1" source="06AGU7f5jaIpLNaev6gf-2" target="06AGU7f5jaIpLNaev6gf-4">
          <mxGeometry relative="1" as="geometry" />
        </mxCell>
        <mxCell id="06AGU7f5jaIpLNaev6gf-7" style="edgeStyle=orthogonalEdgeStyle;rounded=0;orthogonalLoop=1;jettySize=auto;html=1;" edge="1" parent="1" source="06AGU7f5jaIpLNaev6gf-2" target="06AGU7f5jaIpLNaev6gf-6">
          <mxGeometry relative="1" as="geometry" />
        </mxCell>
        <mxCell id="06AGU7f5jaIpLNaev6gf-2" value="Descompone clave" style="rounded=1;whiteSpace=wrap;html=1;" vertex="1" parent="1">
          <mxGeometry x="400" y="120" width="120" height="60" as="geometry" />
        </mxCell>
        <mxCell id="06AGU7f5jaIpLNaev6gf-4" value="Claves Guardadas" style="rounded=1;whiteSpace=wrap;html=1;" vertex="1" parent="1">
          <mxGeometry x="590" y="120" width="120" height="60" as="geometry" />
        </mxCell>
        <mxCell id="06AGU7f5jaIpLNaev6gf-9" style="edgeStyle=orthogonalEdgeStyle;rounded=0;orthogonalLoop=1;jettySize=auto;html=1;" edge="1" parent="1" source="06AGU7f5jaIpLNaev6gf-6" target="06AGU7f5jaIpLNaev6gf-8">
          <mxGeometry relative="1" as="geometry" />
        </mxCell>
        <mxCell id="06AGU7f5jaIpLNaev6gf-13" style="edgeStyle=orthogonalEdgeStyle;rounded=0;orthogonalLoop=1;jettySize=auto;html=1;" edge="1" parent="1" source="06AGU7f5jaIpLNaev6gf-6" target="06AGU7f5jaIpLNaev6gf-11">
          <mxGeometry relative="1" as="geometry" />
        </mxCell>
        <mxCell id="06AGU7f5jaIpLNaev6gf-6" value="Claves Unicas" style="rounded=1;whiteSpace=wrap;html=1;" vertex="1" parent="1">
          <mxGeometry x="400" y="240" width="120" height="60" as="geometry" />
        </mxCell>
        <mxCell id="06AGU7f5jaIpLNaev6gf-28" style="edgeStyle=orthogonalEdgeStyle;rounded=0;orthogonalLoop=1;jettySize=auto;html=1;" edge="1" parent="1" source="06AGU7f5jaIpLNaev6gf-8" target="06AGU7f5jaIpLNaev6gf-4">
          <mxGeometry relative="1" as="geometry" />
        </mxCell>
        <mxCell id="06AGU7f5jaIpLNaev6gf-8" value="Guardar clave" style="rounded=1;whiteSpace=wrap;html=1;" vertex="1" parent="1">
          <mxGeometry x="590" y="240" width="120" height="60" as="geometry" />
        </mxCell>
        <mxCell id="06AGU7f5jaIpLNaev6gf-11" value="Borrar clave" style="rounded=1;whiteSpace=wrap;html=1;" vertex="1" parent="1">
          <mxGeometry x="400" y="360" width="120" height="60" as="geometry" />
        </mxCell>
        <mxCell id="06AGU7f5jaIpLNaev6gf-14" value="Crear Clave" style="rounded=1;whiteSpace=wrap;html=1;" vertex="1" parent="1">
          <mxGeometry x="200" y="240" width="120" height="60" as="geometry" />
        </mxCell>
        <mxCell id="06AGU7f5jaIpLNaev6gf-17" style="edgeStyle=orthogonalEdgeStyle;rounded=0;orthogonalLoop=1;jettySize=auto;html=1;" edge="1" parent="1" source="06AGU7f5jaIpLNaev6gf-16" target="06AGU7f5jaIpLNaev6gf-1">
          <mxGeometry relative="1" as="geometry">
            <Array as="points">
              <mxPoint x="60" y="150" />
            </Array>
          </mxGeometry>
        </mxCell>
        <mxCell id="06AGU7f5jaIpLNaev6gf-18" style="edgeStyle=orthogonalEdgeStyle;rounded=0;orthogonalLoop=1;jettySize=auto;html=1;entryX=0;entryY=0.5;entryDx=0;entryDy=0;" edge="1" parent="1" source="06AGU7f5jaIpLNaev6gf-16" target="06AGU7f5jaIpLNaev6gf-14">
          <mxGeometry relative="1" as="geometry">
            <Array as="points">
              <mxPoint x="60" y="270" />
            </Array>
          </mxGeometry>
        </mxCell>
        <mxCell id="06AGU7f5jaIpLNaev6gf-24" style="edgeStyle=orthogonalEdgeStyle;rounded=0;orthogonalLoop=1;jettySize=auto;html=1;" edge="1" parent="1" source="06AGU7f5jaIpLNaev6gf-16" target="06AGU7f5jaIpLNaev6gf-21">
          <mxGeometry relative="1" as="geometry" />
        </mxCell>
        <mxCell id="06AGU7f5jaIpLNaev6gf-16" value="Gestor de claves" style="rounded=1;whiteSpace=wrap;html=1;fillColor=#d5e8d4;strokeColor=#82b366;" vertex="1" parent="1">
          <mxGeometry y="240" width="120" height="60" as="geometry" />
        </mxCell>
        <mxCell id="06AGU7f5jaIpLNaev6gf-25" style="edgeStyle=orthogonalEdgeStyle;rounded=0;orthogonalLoop=1;jettySize=auto;html=1;" edge="1" parent="1" source="06AGU7f5jaIpLNaev6gf-21" target="06AGU7f5jaIpLNaev6gf-22">
          <mxGeometry relative="1" as="geometry" />
        </mxCell>
        <mxCell id="06AGU7f5jaIpLNaev6gf-21" value="Cambiar Clave" style="rounded=1;whiteSpace=wrap;html=1;" vertex="1" parent="1">
          <mxGeometry y="400" width="120" height="60" as="geometry" />
        </mxCell>
        <mxCell id="06AGU7f5jaIpLNaev6gf-26" style="edgeStyle=orthogonalEdgeStyle;rounded=0;orthogonalLoop=1;jettySize=auto;html=1;" edge="1" parent="1" source="06AGU7f5jaIpLNaev6gf-22" target="06AGU7f5jaIpLNaev6gf-14">
          <mxGeometry relative="1" as="geometry" />
        </mxCell>
        <mxCell id="06AGU7f5jaIpLNaev6gf-27" style="edgeStyle=orthogonalEdgeStyle;rounded=0;orthogonalLoop=1;jettySize=auto;html=1;" edge="1" parent="1" source="06AGU7f5jaIpLNaev6gf-22" target="06AGU7f5jaIpLNaev6gf-23">
          <mxGeometry relative="1" as="geometry" />
        </mxCell>
        <mxCell id="06AGU7f5jaIpLNaev6gf-22" value="Enviar solicutud" style="rounded=1;whiteSpace=wrap;html=1;" vertex="1" parent="1">
          <mxGeometry x="200" y="400" width="120" height="60" as="geometry" />
        </mxCell>
        <mxCell id="06AGU7f5jaIpLNaev6gf-23" value="Conservar Clave" style="rounded=1;whiteSpace=wrap;html=1;" vertex="1" parent="1">
          <mxGeometry x="200" y="523" width="120" height="60" as="geometry" />
        </mxCell>
        <mxCell id="06AGU7f5jaIpLNaev6gf-30" value="Endpoints" style="rounded=1;whiteSpace=wrap;html=1;" vertex="1" parent="1">
          <mxGeometry x="50" y="680" width="120" height="60" as="geometry" />
        </mxCell>
      </root>
    </mxGraphModel>
  </diagram>
  <diagram id="YA68-ZprE5uxzxuOFjE8" name="FrontEnd ">
    <mxGraphModel dx="880" dy="468" grid="1" gridSize="10" guides="1" tooltips="1" connect="1" arrows="1" fold="1" page="1" pageScale="1" pageWidth="827" pageHeight="1169" math="0" shadow="0">
      <root>
        <mxCell id="0" />
        <mxCell id="1" parent="0" />
      </root>
    </mxGraphModel>
  </diagram>
</mxfile>
